HIERARCHY
ROOT Hips
{
  OFFSET 40.9192 92.6879 18.85
  CHANNELS 6 Xposition Yposition Zposition Zrotation Xrotation Yrotation
  JOINT LeftUpLeg
  {
    OFFSET 8.64259 1.95398 -2.38835
    CHANNELS 3 Zrotation Xrotation Yrotation
    JOINT LeftLeg
    {
      OFFSET 43.7702 0 0
      CHANNELS 3 Zrotation Xrotation Yrotation
      JOINT LeftFoot
      {
        OFFSET 40.6238 0 0
        CHANNELS 3 Zrotation Xrotation Yrotation
        JOINT LeftToeBase
        {
          OFFSET 12.7242 0 0
          CHANNELS 3 Zrotation Xrotation Yrotation
          End Site
          {
            OFFSET 0 0 0
          }
        }
      }
    }
  }
  JOINT RightUpLeg
  {
    OFFSET -8.2249 1.95398 -2.59336
    CHANNELS 3 Zrotation Xrotation Yrotation
    JOINT RightLeg
    {
      OFFSET 43.5653 0 0
      CHANNELS 3 Zrotation Xrotation Yrotation
      JOINT RightFoot
      {
        OFFSET 40.6238 0 0
        CHANNELS 3 Zrotation Xrotation Yrotation
        JOINT RightToeBase
        {
          OFFSET 12.7242 0 0
          CHANNELS 3 Zrotation Xrotation Yrotation
          End Site
          {
            OFFSET 0 0 0
          }
        }
      }
    }
  }
  JOINT Spine
  {
    OFFSET 0.165834 0.87714 6.61349
    CHANNELS 3 Zrotation Xrotation Yrotation
    JOINT Spine1
    {
      OFFSET 7.38963 1.71661e-005 0
      CHANNELS 3 Zrotation Xrotation Yrotation
      JOINT Spine2
      {
        OFFSET 11.9445 1.14441e-005 0
        CHANNELS 3 Zrotation Xrotation Yrotation
        JOINT Spine3
        {
          OFFSET 14.7254 4.19617e-005 0
          CHANNELS 3 Zrotation Xrotation Yrotation
          JOINT Spine4
          {
            OFFSET 10.9679 0 0
            CHANNELS 3 Zrotation Xrotation Yrotation
            JOINT RightShoulder
            {
              OFFSET 2.46616 -1.6653 3.69651
              CHANNELS 3 Zrotation Xrotation Yrotation
              JOINT RightArm
              {
                OFFSET 13.0012 0 0
                CHANNELS 3 Zrotation Xrotation Yrotation
                JOINT RightForeArm
                {
                  OFFSET 28.7848 1.52588e-005 0
                  CHANNELS 3 Zrotation Xrotation Yrotation
                  JOINT RightHand
                  {
                    OFFSET 26.5688 1.52588e-005 0
                    CHANNELS 3 Zrotation Xrotation Yrotation
                    End Site
                    {
                      OFFSET 0 0 0
                    }
                  }
                }
              }
            }
            JOINT LeftShoulder
            {
              OFFSET 2.38034 -1.29275 -3.7523
              CHANNELS 3 Zrotation Xrotation Yrotation
              JOINT LeftArm
              {
                OFFSET 16.3182 6.10351e-005 0
                CHANNELS 3 Zrotation Xrotation Yrotation
                JOINT LeftForeArm
                {
                  OFFSET 27.0901 0 0
                  CHANNELS 3 Zrotation Xrotation Yrotation
                  JOINT LeftHand
                  {
                    OFFSET 24.5451 1.52588e-005 0
                    CHANNELS 3 Zrotation Xrotation Yrotation
                    End Site
                    {
                      OFFSET 0 0 0
                    }
                  }
                }
              }
            }
            JOINT Neck
            {
              OFFSET 5.0226 -0.0266342 0
              CHANNELS 3 Zrotation Xrotation Yrotation
              JOINT Head
              {
                OFFSET 6.69363 2.86102e-005 0
                CHANNELS 3 Zrotation Xrotation Yrotation
                End Site
                {
                  OFFSET 0 0 0
                }
              }
            }
          }
        }
      }
    }
  }
}
MOTION
Frames:	6
Frame Time:	0.0416667
-53.2749 97.3463 43.8758 -104.669 -83.0166 -103.373 -169.533 3.53151 93.5947 -11.8403 5.92111 -3.06232 64.0978 2.25976 3.01091 27.463 -0.715828 -2.78988 173.157 1.49468 89.2593 -9.58413 -7.77713 -0.215333 63.6023 -2.40777 -1.35551 28.654 0.187429 -2.95702 0.0279895 7.12385 -89.9594 12.6261 0.0749878 0.0723783 0.95517 0.0781161 0.0690006 -21.58 0.0497757 0.0915736 -1.56733 0.0497752 0.0915701 92.5485 -46.9222 -97.499 29.4863 -9.21546 -1.24499 -4.6411 -26.9637 -39.2717 -6.07352 -0.920121 5.82781 -96.5555 -48.1223 68.4122 -23.9872 15.6285 1.34766 1.95258 12.4508 -29.6953 11.6897 1.00327 4.48116 6.09261 -22.2542 11.0357 -13.0272 -22.7895 -14.4867 
-53.2612 97.3465 43.9582 -104.383 -83.185 -103.054 -169.523 3.59615 93.6269 -11.8184 6.15239 -3.0793 63.9675 2.18883 3.27695 27.6315 -0.528641 -3.32479 173.121 1.4777 89.2602 -9.49513 -7.68098 -0.152166 63.6406 -2.42314 -1.36619 28.767 0.191086 -2.97135 0.0465077 7.10915 -89.9672 12.6556 0.108051 0.0528949 0.984622 0.110281 0.0480752 -21.5505 0.0871549 0.0829211 -1.53791 0.0871615 0.0829167 92.6489 -47.3618 -97.2519 29.2919 -9.18719 -1.16028 -4.81768 -27.4726 -39.2753 -6.82771 -0.981055 5.8841 -96.683 -48.024 68.1894 -23.8962 15.5265 1.35992 1.93291 12.2335 -29.701 10.7441 0.94744 4.6378 7.18466 -16.2902 7.50292 -9.98267 -16.9561 -9.31102 
-53.26 97.3552 44.0188 -103.846 -83.2806 -102.56 -169.499 3.41365 93.5978 -11.3627 6.14429 -3.12347 63.8749 2.28549 3.32785 27.5958 -0.525598 -3.58708 173.107 1.72406 89.2239 -9.91049 -7.6735 -0.166438 63.5461 -2.32852 -1.30133 28.803 0.185134 -2.86407 0.076008 7.08171 -89.9764 12.7105 0.162259 0.0280094 1.03951 0.163342 0.0208346 -21.4957 0.14634 0.075483 -1.48306 0.14634 0.0754748 92.7296 -47.4247 -97.1122 29.3686 -9.06128 -1.01095 -5.24662 -27.6625 -39.3782 -6.84834 -0.975165 5.72345 -96.4085 -47.7651 68.5144 -24.1774 15.5817 1.11599 2.08191 12.6771 -29.5552 11.3236 0.922741 4.06147 8.6261 -11.0489 4.29819 -9.38454 -11.4796 -5.21816 
-53.2813 97.3481 44.0624 -104.136 -83.5066 -102.864 -169.547 3.54877 93.5807 -11.5941 6.31289 -3.08147 63.9191 2.25855 3.23375 27.6002 -0.552406 -3.32042 173.075 1.56774 89.2211 -9.69849 -7.42659 -0.123494 63.6781 -2.40359 -1.34778 28.5694 0.183929 -2.93265 0.0992247 7.07144 -90.0049 12.7311 0.194756 -0.032818 1.06013 0.193117 -0.041372 -21.4751 0.195612 0.0272234 -1.4625 0.195613 0.0272238 92.7532 -47.1287 -97.1316 29.5881 -8.91241 -0.869137 -5.19879 -27.3179 -39.4769 -6.62841 -0.974611 5.99566 -96.1687 -48.0544 68.9683 -23.8823 15.7097 0.633476 2.01069 12.7838 -29.5567 11.7824 1.0218 4.57337 9.33613 -6.8592 2.56064 -9.00635 -7.16575 -2.16092 
-53.298 97.3399 44.0981 -104.967 -83.719 -103.686 -169.537 3.58918 93.6164 -11.7151 6.63155 -3.08412 63.9985 2.29952 3.14431 27.763 -0.456708 -3.08797 173.042 1.42544 89.2238 -9.56065 -7.23034 -0.0751018 63.7999 -2.46762 -1.3887 28.4746 0.172247 -2.79528 0.10925 7.05384 -90.0247 12.7663 0.205201 -0.0737938 1.09535 0.201759 -0.082757 -21.4399 0.217886 -0.00870603 -1.42731 0.217885 -0.00871741 92.4973 -46.9697 -97.5713 29.6233 -8.77833 -0.571178 -4.77646 -27.1748 -39.2953 -7.03352 -0.980323 5.72479 -96.2522 -48.2045 68.8923 -24.117 15.2887 0.958067 2.63761 13.2063 -29.9064 10.6299 0.94056 4.65963 9.50781 -3.36976 1.37429 -8.92848 -3.57319 -0.2883 
-53.3195 97.4099 44.1014 -105.941 -83.8931 -104.684 -169.506 3.2753 93.6368 -11.1782 6.5059 -3.07482 63.8786 2.40728 2.81207 27.4109 -0.706975 -3.20806 172.978 1.65617 89.2201 -10.1 -6.66433 0.00816724 63.4451 -2.24018 -1.24175 28.9183 0.169322 -2.57015 0.114704 7.05836 -90.0263 12.7599 0.215286 -0.0780949 1.08892 0.211648 -0.0874991 -21.4464 0.228803 -0.00978029 -1.43372 0.228808 -0.00978165 92.615 -47.011 -97.3748 29.4354 -8.86335 -0.804689 -4.14261 -26.7651 -38.8482 -7.29624 -0.882963 4.21268 -96.5089 -48.5091 68.6089 -23.9021 15.1961 1.0466 2.3408 12.7005 -29.6527 10.3269 0.890975 4.43307 9.67987 -0.821937 -0.45043 -8.72674 -0.794499 2.27011 
